<svg width="172" height="125" viewBox="0 0 172 125" fill="none" xmlns="http://www.w3.org/2000/svg">
<path d="M42.8406 124.5C31.027 124.5 20.9335 120.415 12.5601 112.245C4.18669 104.074 0 94.0883 0 82.2867C0 72.1711 3.05077 63.1578 9.15231 55.2469C15.2538 47.3359 23.2378 42.2781 33.1041 40.0734C36.3496 28.1422 42.8406 18.4805 52.5771 11.0883C62.3136 3.69609 73.3483 0 85.6812 0C100.87 0 113.755 5.28477 124.335 15.8543C134.915 26.4238 140.206 39.2953 140.206 54.4688C149.163 55.5063 156.595 59.3645 162.502 66.0434C168.409 72.7223 171.362 80.5359 171.362 89.4844C171.362 99.2109 167.955 107.479 161.139 114.287C154.323 121.096 146.047 124.5 136.311 124.5H42.8406Z" fill="white" fill-opacity="0.07"/>
</svg>
